<?xml version="1.0" encoding="utf-8"?>
<!-- Generator: Adobe Illustrator 16.0.0, SVG Export Plug-In . SVG Version: 6.00 Build 0)  -->
<!DOCTYPE svg PUBLIC "-//W3C//DTD SVG 1.1//EN" "http://www.w3.org/Graphics/SVG/1.1/DTD/svg11.dtd">
<svg version="1.1" id="Layer_1" xmlns="http://www.w3.org/2000/svg" xmlns:xlink="http://www.w3.org/1999/xlink" x="0px"
    y="0px" viewBox="392 392 16 16" enable-background="new 392 392 16 16" xml:space="preserve">
    <g>
        <circle fill="#C13584" cx="400.002" cy="400.002" r="1.6" />
        <path fill="#C13584" d="M403.741,397.169c-0.087-0.224-0.19-0.384-0.358-0.552c-0.168-0.168-0.328-0.272-0.552-0.359
		c-0.17-0.065-0.424-0.144-0.892-0.165c-0.506-0.023-0.658-0.028-1.939-0.028c-1.282,0-1.434,0.005-1.94,0.028
		c-0.468,0.021-0.722,0.1-0.891,0.165c-0.224,0.087-0.384,0.191-0.552,0.359c-0.168,0.168-0.272,0.328-0.359,0.552
		c-0.065,0.169-0.144,0.423-0.165,0.891c-0.023,0.506-0.028,0.658-0.028,1.939c0,1.282,0.005,1.434,0.028,1.94
		c0.021,0.468,0.1,0.722,0.165,0.892c0.087,0.224,0.191,0.384,0.359,0.552s0.328,0.271,0.552,0.358
		c0.169,0.066,0.423,0.145,0.891,0.166c0.506,0.022,0.658,0.027,1.94,0.027c1.281,0,1.434-0.005,1.939-0.027
		c0.468-0.021,0.722-0.1,0.892-0.166c0.224-0.087,0.384-0.19,0.552-0.358s0.271-0.328,0.358-0.552
		c0.066-0.17,0.145-0.424,0.166-0.892c0.022-0.506,0.027-0.658,0.027-1.94c0-1.281-0.005-1.433-0.027-1.939
		C403.886,397.592,403.808,397.338,403.741,397.169z M400.002,402.467c-1.361,0-2.465-1.104-2.465-2.465s1.104-2.465,2.465-2.465
		s2.465,1.104,2.465,2.465S401.363,402.467,400.002,402.467z M402.564,398.014c-0.318,0-0.576-0.258-0.576-0.576
		c0-0.318,0.258-0.576,0.576-0.576c0.317,0,0.575,0.258,0.575,0.576C403.14,397.756,402.882,398.014,402.564,398.014z" />
        <path fill="#C13584"
            d="M400,392c-4.418,0-8,3.582-8,8c0,4.418,3.582,8,8,8c4.418,0,8-3.582,8-8C408,395.582,404.418,392,400,392z
		 M404.771,401.979c-0.022,0.511-0.104,0.86-0.223,1.165c-0.123,0.316-0.287,0.584-0.554,0.851s-0.534,0.431-0.851,0.554
		c-0.305,0.118-0.654,0.199-1.165,0.223c-0.512,0.023-0.675,0.029-1.979,0.029s-1.467-0.006-1.979-0.029
		c-0.511-0.023-0.86-0.104-1.165-0.223c-0.315-0.123-0.583-0.287-0.85-0.554s-0.431-0.534-0.554-0.851
		c-0.119-0.305-0.2-0.654-0.223-1.165c-0.023-0.512-0.029-0.675-0.029-1.979c0-1.303,0.005-1.467,0.029-1.979
		c0.023-0.511,0.104-0.86,0.223-1.165c0.123-0.315,0.287-0.583,0.554-0.85s0.535-0.431,0.85-0.554
		c0.305-0.119,0.654-0.2,1.165-0.223c0.512-0.023,0.676-0.029,1.979-0.029s1.467,0.005,1.979,0.029
		c0.511,0.023,0.86,0.104,1.165,0.223c0.316,0.123,0.584,0.287,0.851,0.554s0.431,0.535,0.554,0.85
		c0.118,0.305,0.2,0.654,0.223,1.165c0.023,0.512,0.029,0.676,0.029,1.979C404.8,401.304,404.794,401.467,404.771,401.979z" />
    </g>
</svg>