<svg width="26.388" height="16.576" x="0" y="0" viewBox="61.501 1 26.388 16.576">
	<g fill="#0F0F0F">
		<path
			d="M69.176 1c.76 0 1.466.057 2.111.23a4.679 4.679 0 011.64.644c.471.29.82.704 1.055 1.232.235.527.357 1.173.357 1.875 0 .817-.174 1.52-.584 2.049-.357.528-.933.999-1.648 1.348 1.004.289 1.762.818 2.225 1.521.461.701.759 1.578.759 2.574 0 .82-.171 1.527-.467 2.111a3.81 3.81 0 01-1.291 1.459 5.894 5.894 0 01-1.875.818c-.702.176-1.404.287-2.106.287l-7.85.02V1h7.674zm-.471 6.558c.646 0 1.173-.173 1.579-.472.405-.296.584-.816.584-1.461 0-.355-.053-.702-.171-.935-.117-.231-.292-.412-.526-.587-.235-.115-.472-.23-.764-.289-.288-.058-.589-.058-.934-.058h-3.396v3.81c0-.008 3.628-.008 3.628-.008zm.175 6.917c.357 0 .702-.057.998-.117.293-.057.589-.176.819-.354.232-.18.415-.354.59-.646.112-.287.227-.641.227-1.055 0-.82-.227-1.406-.698-1.818-.471-.355-1.116-.527-1.874-.527h-3.864v4.508h3.803v.009zM80.191 14.418c.472.473 1.168.699 2.106.699.641 0 1.229-.174 1.701-.471.47-.352.763-.699.876-1.057h2.869c-.471 1.406-1.178 2.408-2.11 3.055-.933.584-2.05.932-3.393.932a6.822 6.822 0 01-2.521-.471 4.736 4.736 0 01-1.875-1.291 4.75 4.75 0 01-1.178-1.938c-.288-.76-.41-1.574-.41-2.518 0-.875.114-1.703.41-2.46a6.406 6.406 0 011.233-1.992c.528-.528 1.174-1 1.876-1.29.763-.289 1.522-.47 2.464-.47.994 0 1.874.174 2.634.586.759.415 1.347.876 1.814 1.578.47.646.818 1.406 1.06 2.225.117.818.174 1.644.117 2.58h-8.495c.002.955.352 1.832.822 2.303zm3.69-6.158c-.41-.412-1.056-.643-1.814-.643-.532 0-.934.114-1.291.289-.353.172-.584.414-.819.645a1.599 1.599 0 00-.41.816c-.061.289-.113.531-.113.761h5.269c-.116-.866-.412-1.454-.822-1.868zm-5.154-6.146h6.559v1.578h-6.559V2.114z">
		</path>
	</g>
</svg>
