<svg xmlns="http://www.w3.org/2000/svg" viewBox="392 392 16 16">
    <g>
        <circle cx="400.002" cy="400.002" r="1.6" />
        <path
            d="M403.741 397.169a1.484 1.484 0 00-.358-.552 1.487 1.487 0 00-.552-.359c-.17-.065-.424-.144-.892-.165-.506-.023-.658-.028-1.939-.028-1.282 0-1.434.005-1.94.028-.468.021-.722.1-.891.165a1.487 1.487 0 00-.552.359 1.487 1.487 0 00-.359.552c-.065.169-.144.423-.165.891-.023.506-.028.658-.028 1.939 0 1.282.005 1.434.028 1.94.021.468.1.722.165.892.087.224.191.384.359.552s.328.271.552.358c.169.066.423.145.891.166.506.022.658.027 1.94.027 1.281 0 1.434-.005 1.939-.027.468-.021.722-.1.892-.166.224-.087.384-.19.552-.358s.271-.328.358-.552c.066-.17.145-.424.166-.892.022-.506.027-.658.027-1.94 0-1.281-.005-1.433-.027-1.939-.021-.468-.099-.722-.166-.891zm-3.739 5.298a2.465 2.465 0 11.001-4.931 2.465 2.465 0 01-.001 4.931zm2.562-4.453a.576.576 0 110-1.152.576.576 0 010 1.152z" />
        <path
            d="M400 392a8 8 0 100 16 8 8 0 000-16zm4.771 9.979c-.022.511-.104.86-.223 1.165-.123.316-.287.584-.554.851s-.534.431-.851.554c-.305.118-.654.199-1.165.223-.512.023-.675.029-1.979.029s-1.467-.006-1.979-.029c-.511-.023-.86-.104-1.165-.223-.315-.123-.583-.287-.85-.554s-.431-.534-.554-.851c-.119-.305-.2-.654-.223-1.165-.023-.512-.029-.675-.029-1.979 0-1.303.005-1.467.029-1.979.023-.511.104-.86.223-1.165.123-.315.287-.583.554-.85s.535-.431.85-.554c.305-.119.654-.2 1.165-.223.512-.023.676-.029 1.979-.029s1.467.005 1.979.029c.511.023.86.104 1.165.223.316.123.584.287.851.554s.431.535.554.85c.118.305.2.654.223 1.165.023.512.029.676.029 1.979 0 1.304-.006 1.467-.029 1.979z" />
    </g>
</svg>