<svg width="24" height="24" x="0" y="0" viewBox="-2 -2 24 24">
	<g fill="#0F0F0F">
		<path
			d="M9.999.162c3.204 0 3.585.012 4.851.07 1.17.053 1.805.248 2.229.413.521.192.992.499 1.379.897.398.387.705.858.898 1.38.164.423.359 1.058.412 2.228.058 1.266.072 1.646.072 4.85 0 3.203-.014 3.584-.072 4.848-.053 1.17-.248 1.807-.412 2.229a3.98 3.98 0 01-2.277 2.279c-.424.164-1.059.359-2.229.412-1.266.057-1.645.07-4.851.07-3.203 0-3.583-.014-4.848-.07-1.17-.053-1.806-.248-2.228-.412a3.747 3.747 0 01-1.381-.898 3.702 3.702 0 01-.896-1.381c-.165-.422-.36-1.059-.414-2.229C.174 13.584.162 13.203.162 10c0-3.204.013-3.583.07-4.85.054-1.17.249-1.805.414-2.228.191-.521.498-.993.897-1.38a3.713 3.713 0 011.38-.897C3.345.48 3.981.285 5.151.232 6.416.174 6.797.162 9.999.162m0-2.162c-3.257 0-3.667.014-4.946.072-1.278.059-2.149.261-2.912.558A5.867 5.867 0 00.015.014 5.888 5.888 0 00-1.369 2.14c-.297.764-.5 1.636-.558 2.913C-1.985 6.332-2 6.741-2 10c0 3.258.015 3.668.073 4.945.058 1.279.261 2.152.558 2.914a5.896 5.896 0 001.384 2.127 5.899 5.899 0 002.126 1.383c.764.297 1.635.5 2.912.559 1.281.056 1.689.072 4.946.072 3.261 0 3.669-.016 4.95-.072 1.277-.059 2.148-.262 2.912-.559a6.143 6.143 0 003.51-3.51c.297-.762.5-1.635.557-2.914.06-1.277.072-1.687.072-4.945 0-3.259-.012-3.668-.072-4.947-.057-1.277-.26-2.149-.557-2.913A5.917 5.917 0 0019.986.014a5.875 5.875 0 00-2.127-1.384c-.762-.297-1.635-.499-2.912-.558C13.668-1.986 13.258-2 9.999-2z">
		</path>
		<path d="M9.999 3.838a6.162 6.162 0 000 12.322 6.162 6.162 0 100-12.322zm0 10.162a4 4 0 11.002-8 4 4 0 01-.002 8z">
		</path>
		<circle cx="16.406" cy="3.594" r="1.44"></circle>
	</g>
</svg>
