<svg width="18.762" height="17.936" x="0" y="0" viewBox="100.348 1.032 18.762 17.936">
	<g fill="#0F0F0F">
		<path
			d="M104.607 18.967V6.866h-4.023v12.101h4.023zm-2.012-13.752c1.403 0 2.277-.93 2.277-2.091-.027-1.188-.874-2.092-2.25-2.092-1.375 0-2.274.904-2.274 2.092 0 1.161.872 2.091 2.222 2.091h.025zM106.833 18.967h4.021v-6.758c0-.361.026-.723.134-.98.29-.725.951-1.473 2.063-1.473 1.453 0 2.036 1.109 2.036 2.736v6.475h4.021v-6.939c0-3.716-1.984-5.444-4.63-5.444-2.17 0-3.121 1.212-3.652 2.039h.027V6.866h-4.021c.053 1.137.001 12.101.001 12.101z">
		</path>
	</g>
</svg>
